<svg width="76" height="48" viewBox="0 0 76 48" fill="none" xmlns="http://www.w3.org/2000/svg">
<path d="M75.9992 0.0528884L25.8949 0H25.8611C21.9867 0 18.2062 0.751771 14.6249 2.2402C2.56956 7.24193 -3.18756 21.1742 1.79167 33.297C5.55334 42.4581 14.3919 48 23.689 48C26.6916 48 29.743 47.422 32.6855 46.198C36.278 44.7096 39.4948 42.5525 42.2456 39.7947L67.728 14.2345V48H76.0029V0.0528884H75.9992ZM36.3983 33.909C34.4216 35.8923 32.1105 37.4412 29.5251 38.5141C21.6861 41.7667 12.6746 38.0041 9.43526 30.1237C6.1997 22.2433 9.94258 13.1843 17.7816 9.93169C20.3558 8.86259 23.0765 8.32237 25.8611 8.32237H25.8836L61.8694 8.36392L36.3945 33.9128L36.3983 33.909Z" fill="#F7F6F5"/>
</svg>
