<svg width="120" height="120" viewBox="0 0 120 120" fill="none" xmlns="http://www.w3.org/2000/svg">
<path opacity="0.8" d="M0 43.872C0 7.74341 7.74341 0 43.872 0H76.128C112.257 0 120 7.74341 120 43.872V76.128C120 112.257 112.257 120 76.128 120H43.872C7.74341 120 0 112.257 0 76.128V43.872Z" fill="#171717"/>
<g clip-path="url(#clip0_11_83)">
<path d="M60.3468 59.8582C60.086 59.8582 59.8309 59.7675 59.6211 59.5974C53.9859 54.8919 50.8848 48.616 50.8848 41.9319C50.8848 35.2478 53.9859 28.9719 59.6211 24.2607C60.0407 23.9092 60.653 23.9092 61.0725 24.2607C66.7078 28.9662 69.8089 35.2421 69.8089 41.9262C69.8089 48.6103 66.7078 54.8862 61.0725 59.5917C60.8627 59.7675 60.6019 59.8525 60.3468 59.8525V59.8582ZM60.3468 26.6361C55.698 30.8201 53.1525 36.2229 53.1525 41.9319C53.1525 47.6409 55.698 53.038 60.3468 57.2276C64.9956 53.0437 67.5411 47.6409 67.5411 41.9319C67.5411 36.2229 64.9956 30.8201 60.3468 26.6361Z" fill="white"/>
<path d="M71.073 76.5201C70.2566 76.5201 69.4345 76.4804 68.6012 76.4067C68.0569 76.3557 67.6204 75.9248 67.575 75.3806C66.9174 68.0672 69.1624 61.4398 73.8906 56.7116C78.6188 51.9834 85.2519 49.744 92.5596 50.396C93.1038 50.447 93.5404 50.8779 93.5857 51.4221C94.2434 58.7299 91.9983 65.3629 87.2701 70.0911C83.0805 74.2807 77.3999 76.5201 71.073 76.5201ZM69.7634 74.2184C76.0109 74.5528 81.6292 72.5289 85.6657 68.4924C89.7023 64.4558 91.7205 58.8376 91.3917 52.59C85.1441 52.2612 79.5259 54.2795 75.4893 58.316C71.4528 62.3525 69.4345 67.9708 69.7634 74.2184Z" fill="white"/>
<path d="M49.6204 76.5202C43.2935 76.5202 37.6129 74.2808 33.4233 70.0912C28.7008 65.363 26.4557 58.7356 27.1133 51.4222C27.1644 50.8779 27.5952 50.4414 28.1395 50.3961C35.4472 49.7384 42.0803 51.9835 46.8085 56.7116C51.5367 61.4398 53.776 68.0729 53.1241 75.3806C53.073 75.9249 52.6422 76.3614 52.0979 76.4068C51.2645 76.4805 50.4368 76.5202 49.6261 76.5202H49.6204ZM29.3017 52.5844C28.9729 58.832 30.9911 64.4502 35.0277 68.4868C39.0642 72.5233 44.6825 74.5472 50.93 74.2127C51.2589 67.9652 49.2406 62.3469 45.2041 58.3104C41.1675 54.2739 35.5493 52.2499 29.3017 52.5844Z" fill="white"/>
<path d="M60.3467 95.9998C59.7231 95.9998 59.2129 95.4895 59.2129 94.8659V58.7242C59.2129 58.1006 59.7231 57.5903 60.3467 57.5903C60.9704 57.5903 61.4806 58.1006 61.4806 58.7242V94.8659C61.4806 95.4895 60.9704 95.9998 60.3467 95.9998Z" fill="white"/>
<path d="M60.3467 80.3471C60.1823 80.3471 60.0179 80.313 59.8649 80.2393L51.2872 76.2198C50.7203 75.9534 50.4765 75.2787 50.743 74.7118C51.0094 74.1449 51.6841 73.9011 52.251 74.1675L60.3467 77.9603L68.4425 74.1675C69.0094 73.9011 69.6841 74.1449 69.9505 74.7118C70.217 75.2787 69.9732 75.9534 69.4063 76.2198L60.8286 80.2393C60.6756 80.313 60.5112 80.3471 60.3467 80.3471Z" fill="white"/>
<path d="M60.3467 51.9834C60.0349 51.9834 59.7798 51.7283 59.7798 51.4165V34.8565C59.7798 34.5447 60.0349 34.2896 60.3467 34.2896C60.6585 34.2896 60.9136 34.5447 60.9136 34.8565V51.4165C60.9136 51.7283 60.6585 51.9834 60.3467 51.9834Z" fill="white"/>
<path d="M47.4095 71.0551C47.2678 71.0551 47.1261 71.0041 47.0127 70.8963L32.4313 56.7288C32.2045 56.5134 32.1988 56.1505 32.4199 55.9294C32.6353 55.7083 32.9982 55.697 33.2193 55.9181L47.8007 70.0856C48.0275 70.3011 48.0331 70.6639 47.812 70.885C47.6987 70.9984 47.5513 71.0551 47.4039 71.0551H47.4095Z" fill="white"/>
<path d="M72.8249 71.0552C72.6775 71.0552 72.5301 70.9985 72.4167 70.8851C72.1956 70.6584 72.2013 70.3012 72.4281 70.0858L87.0095 55.9182C87.2363 55.6971 87.5934 55.7028 87.8089 55.9295C88.03 56.1563 88.0243 56.5135 87.7975 56.7289L73.2161 70.8965C73.1084 71.0042 72.961 71.0552 72.8193 71.0552H72.8249Z" fill="white"/>
</g>
<defs>
<clipPath id="clip0_11_83">
<rect width="66.6935" height="72" fill="white" transform="translate(27 24)"/>
</clipPath>
</defs>
</svg>
