<svg width="120" height="120" viewBox="0 0 120 120" fill="none" xmlns="http://www.w3.org/2000/svg">
<path opacity="0.8" d="M0 43.872C0 7.74341 7.74341 0 43.872 0H76.128C112.257 0 120 7.74341 120 43.872V76.128C120 112.257 112.257 120 76.128 120H43.872C7.74341 120 0 112.257 0 76.128V43.872Z" fill="#8CB2C0"/>
<g clip-path="url(#clip0_11_82)">
<path d="M75.8203 95.9999H45.0313C44.643 95.9999 44.2776 95.8015 44.0663 95.4783C43.855 95.1552 43.8265 94.7413 43.9921 94.3898L59.3866 61.3095C59.575 60.907 59.9804 60.6519 60.4258 60.6519C60.8712 60.6519 61.2766 60.907 61.4651 61.3095L76.8596 94.3898C77.0251 94.7413 76.9966 95.1495 76.7853 95.4783C76.574 95.8071 76.2143 95.9999 75.826 95.9999H75.8203ZM46.8186 93.7322H74.0388L60.4315 64.49L46.8243 93.7322H46.8186Z" fill="white"/>
<path d="M68.6768 90.8974C68.4599 90.8974 68.2543 90.7783 68.1572 90.5686L59.9061 72.835C59.7748 72.5516 59.9004 72.2171 60.1859 72.081C60.4714 71.9506 60.814 72.0754 60.9453 72.3588L69.1965 90.0924C69.3278 90.3758 69.2022 90.7103 68.9167 90.8464C68.8367 90.8804 68.7568 90.8974 68.6768 90.8974Z" fill="white"/>
<path d="M60.4772 58.0156H60.4201C56.68 57.9873 53.6365 54.9202 53.6365 51.1841C53.6365 49.3643 54.3502 47.6578 55.6407 46.3823C56.9084 45.1293 58.5929 44.4434 60.3801 44.4434H60.4372C64.1774 44.4717 67.2209 47.5388 67.2209 51.2749C67.2209 53.0947 66.5071 54.8012 65.2166 56.0767C63.949 57.3297 62.2645 58.0156 60.4772 58.0156ZM60.4372 55.7479C61.6592 55.7593 62.7555 55.3001 63.6006 54.4667C64.4572 53.6219 64.9311 52.4881 64.9311 51.2749C64.9311 48.7804 62.904 46.7338 60.4144 46.7111C59.2381 46.7224 58.0961 47.1589 57.251 47.9923C56.3945 48.8371 55.9205 49.9709 55.9205 51.1841C55.9205 53.6786 57.9476 55.7252 60.4372 55.7479Z" fill="white"/>
<path d="M51.4837 61.247C51.1925 61.247 50.9013 61.1336 50.6786 60.9125C45.3054 55.572 45.3054 46.8924 50.6786 41.5519C56.0518 36.2171 64.7997 36.2171 70.1787 41.5519C75.5519 46.8924 75.5519 55.572 70.1787 60.9125C69.7333 61.3547 69.0081 61.3547 68.5627 60.9125C68.1173 60.4703 68.1173 59.7503 68.5627 59.3081C73.0451 54.852 73.0451 47.6067 68.5627 43.1563C64.0745 38.7059 56.777 38.7059 52.2946 43.1563C47.8121 47.6124 47.8121 54.8577 52.2946 59.3081C52.74 59.7503 52.74 60.4703 52.2946 60.9125C52.0719 61.1336 51.7807 61.247 51.4894 61.247H51.4837Z" fill="white"/>
<path d="M74.2329 66.0716C73.9417 66.0716 73.6505 65.9582 73.4278 65.7371C72.9824 65.2949 72.9824 64.5749 73.4278 64.1327C76.8995 60.6858 78.8124 56.105 78.8124 51.2294C78.8124 46.3538 76.8995 41.773 73.4278 38.3261C66.2616 31.2111 54.6015 31.2111 47.4353 38.3261C43.9635 41.773 42.0507 46.3538 42.0507 51.2294C42.0507 56.105 43.9635 60.6858 47.4353 64.1327C47.8807 64.5749 47.8807 65.2949 47.4353 65.7371C46.9899 66.1793 46.2647 66.1793 45.8193 65.7371C41.9136 61.865 39.7666 56.7116 39.7666 51.2294C39.7666 45.7472 41.9136 40.5995 45.8193 36.7217C53.8763 28.7223 66.9868 28.7223 75.0437 36.7217C78.9438 40.5938 81.0965 45.7472 81.0965 51.2294C81.0965 56.7116 78.9495 61.8593 75.0437 65.7371C74.821 65.9582 74.5298 66.0716 74.2386 66.0716H74.2329Z" fill="white"/>
<path d="M79.0179 70.8227C78.7267 70.8227 78.4354 70.7093 78.2127 70.4882C77.7674 70.046 77.7674 69.326 78.2127 68.8838C82.9636 64.1669 85.5788 57.8967 85.5788 51.2296C85.5788 44.5625 82.9636 38.2923 78.2127 33.5754C73.4619 28.8586 67.1465 26.262 60.4314 26.262C53.7163 26.262 47.4009 28.8586 42.6501 33.5754C37.8993 38.2923 35.284 44.5625 35.284 51.2296C35.284 57.8967 37.8993 64.1669 42.6501 68.8838C43.0955 69.326 43.0955 70.046 42.6501 70.4882C42.2047 70.9304 41.4795 70.9304 41.0341 70.4882C35.8551 65.3461 33 58.509 33 51.2296C33 43.9502 35.8551 37.1187 41.0341 31.9767C46.2132 26.8346 53.0996 24 60.4257 24C67.7518 24 74.6382 26.8346 79.823 31.9767C85.0021 37.1187 87.8571 43.9559 87.8571 51.2296C87.8571 58.5033 85.0021 65.3405 79.823 70.4882C79.6003 70.7093 79.3091 70.8227 79.0179 70.8227Z" fill="white"/>
</g>
<defs>
<clipPath id="clip0_11_82">
<rect width="54.8571" height="72" fill="white" transform="translate(33 24)"/>
</clipPath>
</defs>
</svg>
