<svg width="120" height="120" viewBox="0 0 120 120" fill="none" xmlns="http://www.w3.org/2000/svg">
<path opacity="0.8" d="M0 43.872C0 7.74341 7.74341 0 43.872 0H76.128C112.257 0 120 7.74341 120 43.872V76.128C120 112.257 112.257 120 76.128 120H43.872C7.74341 120 0 112.257 0 76.128V43.872Z" fill="#FF5E3E"/>
<g clip-path="url(#clip0_11_84)">
<path d="M83.1883 49.4966C80.8981 49.4966 78.5796 48.8843 76.4934 47.5972C73.5853 45.8056 71.5502 42.9934 70.7679 39.6709C69.9856 36.3598 70.5411 32.9353 72.3382 30.0437C76.0399 24.0621 83.931 22.2025 89.9286 25.8991C92.8367 27.6908 94.8718 30.503 95.6541 33.8254C96.4364 37.1366 95.8809 40.5611 94.0839 43.4527C91.6689 47.3534 87.474 49.4966 83.1883 49.4966ZM83.228 26.2677C79.702 26.2677 76.2497 28.0366 74.2656 31.24C72.7917 33.6213 72.3325 36.4278 72.9787 39.155C73.625 41.8821 75.2973 44.1954 77.6839 45.6695C82.6214 48.7085 89.1123 47.1777 92.1621 42.2563C93.636 39.875 94.0952 37.0685 93.4489 34.3414C92.8027 31.6142 91.1304 29.301 88.7381 27.8268C87.0205 26.7666 85.1101 26.262 83.228 26.262V26.2677Z" fill="white"/>
<path d="M89.2654 41.0432C89.1634 41.0432 89.0613 41.0148 88.9649 40.9581C88.6985 40.7937 88.6191 40.4422 88.7835 40.1757C89.7019 38.6959 89.9853 36.9439 89.5828 35.2487C89.1804 33.5478 88.143 32.1077 86.6521 31.1892C86.3856 31.0247 86.3006 30.6732 86.465 30.4067C86.6294 30.1403 86.9752 30.0552 87.2473 30.2196C88.9933 31.2969 90.2121 32.9865 90.6826 34.9822C91.1531 36.978 90.8187 39.0304 89.7416 40.7653C89.6339 40.9411 89.4468 41.0318 89.2597 41.0318L89.2654 41.0432Z" fill="white"/>
<path d="M66.8111 93.8001C64.5265 93.8001 62.2136 93.1877 60.1275 91.9064C57.2251 90.1204 55.1956 87.3082 54.4133 83.9971C53.631 80.6916 54.1866 77.2785 55.9779 74.3869C59.674 68.4167 67.5537 66.5627 73.5343 70.248C76.4368 72.0339 78.4662 74.8461 79.2485 78.1573C80.0308 81.4627 79.4753 84.8759 77.6839 87.7675C75.2747 91.6569 71.091 93.8001 66.8111 93.8001ZM66.8507 70.6222C63.3304 70.6222 59.8894 72.3855 57.911 75.5832C56.4428 77.9588 55.9836 80.7597 56.6242 83.4755C57.2647 86.197 58.937 88.5045 61.318 89.973C66.2385 93.0063 72.718 91.4811 75.7565 86.5712C77.2247 84.1955 77.6839 81.3947 77.0433 78.6789C76.4028 75.9574 74.7304 73.6498 72.3495 72.1814C70.6375 71.1268 68.7328 70.6222 66.8507 70.6222Z" fill="white"/>
<path d="M72.8654 85.3578C72.7633 85.3578 72.6613 85.3294 72.5649 85.2727C72.2985 85.1083 72.2191 84.7568 72.3835 84.4903C73.2962 83.0162 73.5797 81.2756 73.1772 79.5803C72.7747 77.8851 71.743 76.4506 70.2634 75.5378C69.9969 75.3734 69.9119 75.0218 70.0763 74.7554C70.2407 74.4889 70.5922 74.4038 70.8586 74.5683C72.5989 75.6398 73.8121 77.3238 74.2826 79.3138C74.7531 81.2982 74.4186 83.3507 73.3472 85.08C73.2395 85.2557 73.0525 85.3464 72.8654 85.3464V85.3578Z" fill="white"/>
<path d="M43.4726 56.6126C42.3502 56.6126 41.2164 56.3971 40.1223 55.9492C37.9625 55.059 36.2788 53.3865 35.3832 51.232C34.4875 49.0831 34.4875 46.7189 35.3775 44.57C37.2142 40.1306 42.3275 38.0045 46.7775 39.8358C48.9374 40.726 50.621 42.3985 51.5167 44.553C52.4124 46.7019 52.4124 49.0661 51.5224 51.215C51.0972 52.2355 50.4963 53.1597 49.731 53.9478C48.0417 55.6884 45.7798 56.6182 43.4669 56.6182L43.4726 56.6126ZM43.4556 41.446C40.9103 41.446 38.4954 42.9485 37.4693 45.4375C36.8117 47.025 36.8174 48.777 37.475 50.3645C38.1382 51.9577 39.3854 53.1994 40.984 53.8571C43.4556 54.8719 46.2503 54.2936 48.1041 52.3716C48.6709 51.7876 49.1131 51.1072 49.4249 50.3532C50.0825 48.7656 50.0768 47.0137 49.4192 45.4262C48.756 43.833 47.5088 42.597 45.9102 41.9393C45.1052 41.6104 44.2719 41.4517 43.4556 41.4517V41.446Z" fill="white"/>
<path d="M31.6473 96.0002C30.8536 96.0002 30.0543 95.8755 29.2607 95.6147C27.3163 94.974 25.7403 93.6189 24.8163 91.7989C23.898 89.979 23.7449 87.9152 24.3798 85.9761C25.7007 81.979 30.0316 79.7961 34.0395 81.1115C35.9839 81.7465 37.5599 83.1072 38.4839 84.9272C39.4022 86.7472 39.5553 88.811 38.9204 90.75C37.8603 93.9591 34.8615 95.9946 31.6473 95.9946V96.0002ZM31.6586 82.9995C29.3967 82.9995 27.2879 84.434 26.5396 86.6905C26.0918 88.0512 26.1995 89.5027 26.8458 90.7784C27.492 92.0598 28.6031 93.0123 29.9693 93.4658C32.7924 94.39 35.8365 92.8592 36.7662 90.047C37.2141 88.6863 37.1064 87.2348 36.4601 85.9591C35.8139 84.6778 34.7028 83.7252 33.3366 83.2717C32.781 83.0902 32.2142 82.9995 31.6586 82.9995Z" fill="white"/>
<path d="M32.8095 82.9995C32.6904 82.9995 32.5657 82.9825 32.4467 82.9371C31.8514 82.7387 31.534 82.0924 31.7324 81.5027L40.6608 54.9116C40.8592 54.3163 41.5055 53.9988 42.095 54.1972C42.6903 54.3957 43.0077 55.042 42.8093 55.6317L33.8809 82.2228C33.7222 82.699 33.28 82.9938 32.8038 82.9938L32.8095 82.9995Z" fill="white"/>
<path d="M60.0992 72.7598C59.7307 72.7598 59.3679 72.5784 59.1525 72.2495L47.3443 54.3502C46.9985 53.8285 47.1459 53.1255 47.6674 52.7796C48.189 52.4338 48.8919 52.5812 49.2377 53.1028L61.0459 71.0022C61.3917 71.5238 61.2443 72.2268 60.7228 72.5727C60.53 72.6974 60.3146 72.7598 60.0992 72.7598Z" fill="white"/>
<path d="M73.5627 72.7596C73.4493 72.7596 73.3303 72.7425 73.2112 72.7029C72.616 72.5101 72.2872 71.8694 72.48 71.2741L80.0649 47.8354C80.2576 47.2401 80.8982 46.9112 81.4934 47.104C82.0887 47.2968 82.4174 47.9374 82.2247 48.5328L74.6398 71.9715C74.4867 72.4534 74.0389 72.7539 73.5627 72.7539V72.7596Z" fill="white"/>
</g>
<defs>
<clipPath id="clip0_11_84">
<rect width="72" height="72" fill="white" transform="translate(24 24)"/>
</clipPath>
</defs>
</svg>
