<svg width="241" height="50" viewBox="0 0 241 50" fill="none" xmlns="http://www.w3.org/2000/svg">
<g opacity="0.4" clip-path="url(#clip0_57_1335)">
<path d="M151.718 22.4106V15.0092H154.414C155.39 15.0092 156.11 15.1925 156.621 15.5362C157.132 15.8799 157.365 16.3841 157.365 17.0486C157.365 17.4381 157.272 17.7589 157.086 18.0339C156.9 18.3089 156.644 18.5151 156.296 18.6297C156.691 18.7214 156.993 18.9276 157.202 19.2026C157.411 19.4775 157.527 19.8213 157.527 20.2108C157.527 20.9441 157.295 21.4711 156.83 21.8378C156.366 22.2044 155.668 22.3877 154.762 22.3877H151.718V22.4106ZM153.507 18.1027H154.46C154.855 18.1027 155.134 18.0339 155.297 17.8964C155.459 17.7589 155.552 17.5527 155.552 17.2777C155.552 16.9569 155.459 16.7507 155.273 16.6132C155.088 16.4757 154.809 16.407 154.39 16.407H153.507V18.1256V18.1027ZM153.507 19.2713V21.0357H154.692C155.018 21.0357 155.273 20.967 155.436 20.8066C155.599 20.6462 155.692 20.4629 155.692 20.1879C155.692 19.5692 155.39 19.2713 154.762 19.2484H153.484L153.507 19.2713ZM161.292 19.7984H160.316V22.4106H158.503V15.0092H161.455C162.338 15.0092 163.035 15.1925 163.546 15.582C164.057 15.9716 164.29 16.5215 164.29 17.2319C164.29 17.736 164.173 18.1714 163.964 18.5151C163.755 18.8588 163.43 19.1338 162.965 19.3401L164.522 22.319V22.3877H162.593L161.269 19.7754L161.292 19.7984ZM160.316 18.4235H161.455C161.803 18.4235 162.059 18.3318 162.221 18.1485C162.384 17.9652 162.477 17.7131 162.477 17.3923C162.477 17.0715 162.384 16.8194 162.221 16.6361C162.036 16.4528 161.78 16.3611 161.455 16.3611H160.316V18.4005V18.4235ZM169.657 21.0357H167.171L166.73 22.4106H164.801L167.543 15.0092H169.239L172.004 22.4106H170.053L169.611 21.0357H169.657ZM167.613 19.6609H169.216L168.403 17.0944L167.589 19.6609H167.613ZM178.836 22.4106H177.047L174.398 17.8048V22.4106H172.585V15.0092H174.398L177.047 19.615V15.0092H178.86V22.4106H178.836ZM179.975 22.4106V15.0092H182.392C183.066 15.0092 183.646 15.1467 184.181 15.4445C184.715 15.7424 185.134 16.1549 185.413 16.7049C185.715 17.2548 185.854 17.8506 185.854 18.5151V18.8588C185.854 19.5463 185.715 20.1421 185.413 20.6691C185.11 21.1962 184.715 21.6315 184.181 21.9294C183.646 22.2273 183.066 22.3877 182.415 22.3877H179.952L179.975 22.4106ZM181.787 16.407V21.0587H182.415C182.926 21.0587 183.321 20.8753 183.6 20.5087C183.879 20.1421 184.018 19.615 184.018 18.8818V18.561C184.018 17.8506 183.879 17.3006 183.6 16.9569C183.321 16.5903 182.926 16.407 182.392 16.407H181.787ZM191.245 21.0357H194.382V22.4106H189.433V15.0092H191.245V21.0357ZM197.078 22.4106H195.265V15.0092H197.078V22.4106ZM204.398 19.9129C204.374 20.417 204.235 20.8753 203.979 21.2878C203.724 21.7003 203.352 21.9982 202.887 22.2044C202.422 22.4106 201.888 22.5252 201.284 22.5252C200.308 22.5252 199.518 22.2044 198.96 21.5857C198.402 20.9441 198.1 20.0504 198.1 18.9047V18.538C198.1 17.8048 198.24 17.1861 198.495 16.6361C198.751 16.0862 199.123 15.6737 199.611 15.3758C200.099 15.0779 200.656 14.9404 201.284 14.9404C202.19 14.9404 202.934 15.1696 203.468 15.6508C204.026 16.132 204.328 16.7736 204.421 17.5985H202.608C202.608 17.1402 202.469 16.8194 202.26 16.6361C202.051 16.4528 201.725 16.3382 201.261 16.3382C200.796 16.3382 200.47 16.4986 200.261 16.8423C200.052 17.1632 199.936 17.7131 199.936 18.4235V18.9505C199.936 19.7296 200.029 20.3025 200.238 20.6462C200.447 20.9899 200.796 21.1503 201.284 21.1503C201.702 21.1503 202.027 21.0587 202.237 20.8524C202.446 20.6691 202.562 20.3483 202.585 19.9358H204.374L204.398 19.9129ZM209.905 19.2713H207.07V21.0357H210.439V22.4106H205.281V15.0092H210.463V16.3841H207.093V17.9423H209.928V19.2713H209.905ZM217.411 22.4106H215.621L212.972 17.8048V22.4106H211.16V15.0092H212.972L215.621 19.615V15.0092H217.434V22.4106H217.411ZM222.43 20.4629C222.43 20.2108 222.337 20.0046 222.151 19.8442C221.965 19.7067 221.64 19.5463 221.175 19.3859C220.71 19.2255 220.315 19.088 220.013 18.9276C219.037 18.4464 218.549 17.8048 218.549 16.9798C218.549 16.5674 218.665 16.2007 218.921 15.9028C219.153 15.582 219.502 15.3529 219.944 15.1696C220.385 14.9863 220.873 14.9175 221.431 14.9175C221.988 14.9175 222.453 15.0092 222.872 15.1925C223.29 15.3758 223.638 15.6508 223.871 15.9945C224.103 16.3382 224.219 16.7507 224.219 17.1861H222.407C222.407 16.8882 222.314 16.659 222.128 16.4757C221.942 16.3153 221.686 16.2236 221.361 16.2236C221.036 16.2236 220.78 16.2924 220.594 16.4299C220.408 16.5674 220.315 16.7507 220.315 16.9569C220.315 17.1402 220.408 17.3236 220.617 17.461C220.827 17.6214 221.175 17.7819 221.71 17.9423C222.221 18.1027 222.662 18.286 222.988 18.4693C223.801 18.9276 224.196 19.5692 224.196 20.3712C224.196 21.0128 223.94 21.517 223.452 21.8836C222.964 22.2502 222.291 22.4335 221.408 22.4335C220.803 22.4335 220.246 22.319 219.758 22.1127C219.27 21.9065 218.898 21.6086 218.642 21.2191C218.387 20.8524 218.27 20.417 218.27 19.9358H220.083C220.083 20.3254 220.176 20.6233 220.385 20.8066C220.594 20.9899 220.92 21.0816 221.408 21.0816C221.71 21.0816 221.942 21.0128 222.105 20.8983C222.267 20.7608 222.36 20.6004 222.36 20.3712L222.43 20.4629ZM229.82 19.2713H226.985V21.0357H230.354V22.4106H225.195V15.0092H230.377V16.3841H227.008V17.9423H229.843V19.2713H229.82ZM142.818 32.4015V34.8992H141.006V27.4977H144.003C144.584 27.4977 145.072 27.6123 145.514 27.8185C145.955 28.0247 146.304 28.3226 146.536 28.7122C146.768 29.1017 146.908 29.5371 146.908 30.0183C146.908 30.7287 146.652 31.3245 146.118 31.7369C145.583 32.1723 144.886 32.3786 143.957 32.3786H142.795L142.818 32.4015ZM142.818 31.0037H144.003C144.352 31.0037 144.631 30.912 144.793 30.7516C144.979 30.5683 145.072 30.3391 145.072 30.0183C145.072 29.6746 144.979 29.3996 144.793 29.1934C144.607 28.9872 144.352 28.8726 144.026 28.8726H142.818V31.0037ZM151.207 33.5243H148.72L148.279 34.8992H146.35L149.092 27.4977H150.789L153.554 34.8992H151.602L151.16 33.5243H151.207ZM149.162 32.1494H150.765L149.952 29.583L149.139 32.1494H149.162ZM156.923 32.2869H155.947V34.8992H154.135V27.4977H157.086C157.969 27.4977 158.666 27.681 159.177 28.0706C159.689 28.4601 159.921 29.0101 159.921 29.7204C159.921 30.2246 159.805 30.6599 159.596 31.0037C159.386 31.3474 159.061 31.6224 158.596 31.8286L160.153 34.8075V34.8763H158.225L156.9 32.264L156.923 32.2869ZM155.947 30.912H157.086C157.435 30.912 157.69 30.8203 157.853 30.637C158.015 30.4537 158.108 30.2017 158.108 29.8808C158.108 29.56 158.015 29.308 157.853 29.1247C157.667 28.9413 157.411 28.8497 157.086 28.8497H155.947V30.8891V30.912ZM166.66 28.8726H164.406V34.8992H162.593V28.8726H160.386V27.4977H166.66V28.8726ZM173.678 34.8992H171.888L169.239 30.2933V34.8992H167.427V27.4977H169.239L171.888 32.1036V27.4977H173.701V34.8992H173.678ZM179.464 31.7599H176.629V33.5243H179.998V34.8992H174.839V27.4977H180.021V28.8726H176.652V30.4308H179.487V31.7599H179.464ZM183.507 32.2869H182.531V34.8992H180.719V27.4977H183.67C184.553 27.4977 185.25 27.681 185.761 28.0706C186.272 28.4601 186.505 29.0101 186.505 29.7204C186.505 30.2246 186.389 30.6599 186.179 31.0037C185.97 31.3474 185.645 31.6224 185.18 31.8286L186.737 34.8075V34.8763H184.808L183.484 32.264L183.507 32.2869ZM182.531 30.912H183.67C184.018 30.912 184.274 30.8203 184.437 30.637C184.599 30.4537 184.692 30.2017 184.692 29.8808C184.692 29.56 184.599 29.308 184.437 29.1247C184.251 28.9413 183.995 28.8497 183.67 28.8497H182.531V30.8891V30.912ZM192.035 32.4015V34.8992H190.223V27.4977H193.22C193.801 27.4977 194.289 27.6123 194.731 27.8185C195.172 28.0247 195.521 28.3226 195.753 28.7122C195.986 29.1017 196.125 29.5371 196.125 30.0183C196.125 30.7287 195.869 31.3245 195.335 31.7369C194.801 32.1723 194.103 32.3786 193.174 32.3786H192.012L192.035 32.4015ZM192.035 31.0037H193.22C193.569 31.0037 193.848 30.912 194.01 30.7516C194.196 30.5683 194.289 30.3391 194.289 30.0183C194.289 29.6746 194.196 29.3996 194.01 29.1934C193.825 28.9872 193.569 28.8726 193.244 28.8726H192.035V31.0037ZM199.89 32.2869H198.914V34.8992H197.101V27.4977H200.052C200.935 27.4977 201.632 27.681 202.144 28.0706C202.655 28.4601 202.887 29.0101 202.887 29.7204C202.887 30.2246 202.771 30.6599 202.562 31.0037C202.353 31.3474 202.027 31.6224 201.563 31.8286L203.12 34.8075V34.8763H201.191L199.866 32.264L199.89 32.2869ZM198.914 30.912H200.052C200.401 30.912 200.656 30.8203 200.819 30.637C200.982 30.4537 201.075 30.2017 201.075 29.8808C201.075 29.56 200.982 29.308 200.819 29.1247C200.633 28.9413 200.378 28.8497 200.052 28.8497H198.914V30.8891V30.912ZM210.323 31.3474C210.323 32.0577 210.184 32.6994 209.905 33.2722C209.626 33.8222 209.254 34.2576 208.743 34.5555C208.255 34.8533 207.674 35.0137 207.047 35.0137C206.419 35.0137 205.838 34.8763 205.35 34.5784C204.862 34.2805 204.467 33.868 204.189 33.341C203.91 32.8139 203.77 32.1952 203.747 31.4849V31.0724C203.747 30.3391 203.886 29.6975 204.142 29.1476C204.421 28.5976 204.793 28.1622 205.304 27.8643C205.815 27.5665 206.373 27.406 207.023 27.406C207.674 27.406 208.232 27.5665 208.72 27.8643C209.208 28.1622 209.603 28.5976 209.882 29.1476C210.161 29.6975 210.3 30.3391 210.3 31.0495V31.3932L210.323 31.3474ZM208.487 31.0495C208.487 30.3162 208.371 29.7663 208.116 29.3767C207.86 28.9872 207.511 28.8039 207.047 28.8039C206.14 28.8039 205.652 29.4684 205.606 30.8203V31.3703C205.606 32.1036 205.722 32.6535 205.978 33.0431C206.21 33.4326 206.582 33.616 207.07 33.616C207.558 33.616 207.883 33.4326 208.116 33.0431C208.371 32.6535 208.487 32.1036 208.487 31.3932V31.0495ZM217.411 33.9826C217.132 34.2805 216.737 34.5325 216.179 34.7159C215.645 34.8992 215.064 34.9908 214.413 34.9908C213.437 34.9908 212.647 34.6929 212.066 34.0972C211.485 33.5014 211.16 32.6764 211.113 31.6224V30.9808C211.113 30.2475 211.229 29.6059 211.508 29.0788C211.764 28.5289 212.136 28.1164 212.624 27.8185C213.112 27.5206 213.669 27.3831 214.32 27.3831C215.25 27.3831 215.97 27.5894 216.504 28.0247C217.039 28.4601 217.318 29.0788 217.411 29.9038H215.668C215.598 29.4913 215.482 29.1934 215.273 29.0101C215.064 28.8268 214.785 28.7351 214.39 28.7351C213.925 28.7351 213.576 28.9184 213.344 29.308C213.088 29.6975 212.972 30.2246 212.972 30.9349V31.3932C212.972 32.1265 213.112 32.6764 213.367 33.066C213.623 33.4326 214.018 33.616 214.576 33.616C215.04 33.616 215.389 33.5014 215.621 33.2951V32.1494H214.367V30.9349H217.434V33.9826H217.411ZM221.245 32.2869H220.269V34.8992H218.456V27.4977H221.408C222.291 27.4977 222.988 27.681 223.499 28.0706C224.01 28.4601 224.243 29.0101 224.243 29.7204C224.243 30.2246 224.126 30.6599 223.917 31.0037C223.708 31.3474 223.383 31.6224 222.918 31.8286L224.475 34.8075V34.8763H222.546L221.222 32.264L221.245 32.2869ZM220.269 30.912H221.408C221.756 30.912 222.012 30.8203 222.174 30.637C222.337 30.4537 222.43 30.2017 222.43 29.8808C222.43 29.56 222.337 29.308 222.174 29.1247C221.988 28.9413 221.733 28.8497 221.408 28.8497H220.269V30.8891V30.912ZM229.587 33.5243H227.101L226.659 34.8992H224.731L227.473 27.4977H229.169L231.934 34.8992H229.982L229.541 33.5243H229.587ZM227.542 32.1494H229.146L228.332 29.583L227.519 32.1494H227.542ZM234.885 27.4977L236.558 32.6535L238.232 27.4977H240.602V34.8992H238.789V33.1806L238.975 29.6517L237.163 34.9221H235.977L234.165 29.6517L234.351 33.1806V34.8992H232.538V27.4977H234.909H234.885ZM13.7799 34.4638H7.13393C4.62428 34.4638 2.78851 34.0284 1.6731 33.1347C0.557702 32.264 0 30.8204 0 28.8726V14.3676H4.34543V28.8726C4.34543 29.6975 4.55456 30.2017 4.97284 30.4995C5.39112 30.8204 6.08824 30.9349 7.13393 30.9349H13.7799V34.4409V34.4638ZM30.2785 34.4638H22.3778C19.8681 34.4638 18.1021 34.0972 17.0564 33.2722C16.0107 32.516 15.5227 31.1412 15.5227 29.1247V14.3676H30.2785V17.8735H19.9378V22.571H27.2112L26.9323 26.077H20.0075V28.8497C20.0075 29.6746 20.2167 30.1787 20.635 30.4766C21.0532 30.7974 21.7504 30.912 22.7961 30.912H30.418V34.418H30.2785V34.4638ZM48.7524 28.6893C48.7524 30.5683 48.1947 31.9432 47.0793 32.9514C45.9639 33.9597 44.4302 34.4638 42.3853 34.4638H39.3877C36.9477 34.4638 35.1817 34.0972 34.136 33.341C33.0903 32.5848 32.6023 31.2099 32.6023 29.3309V14.3905H41.967C44.1281 14.3905 45.7548 14.8946 46.8005 15.8341C47.8461 16.7736 48.4039 18.1485 48.4039 19.9129C48.4039 20.9212 48.125 21.7919 47.5673 22.4794C47.0096 23.1668 46.3822 23.6709 45.6851 23.9918C47.7067 24.8625 48.7524 26.4436 48.7524 28.6893ZM41.6185 22.2044C43.2219 22.2044 44.0584 21.4482 44.0584 20.0046C44.0584 18.561 43.2219 17.8048 41.6185 17.8048H36.8548V22.1357H41.6185V22.2044ZM44.407 28.483C44.407 27.6123 44.1979 26.9248 43.8493 26.4207C43.5007 25.9853 42.8733 25.7333 41.967 25.7333H36.9245V28.8726C36.9245 29.6288 37.1336 30.2017 37.5519 30.4995C37.9702 30.8204 38.6673 30.9349 39.6433 30.9349H41.9438C43.5472 30.9349 44.3838 30.11 44.3838 28.483H44.407ZM68.1325 34.4638H63.578L62.3232 31.0037H54.8407L53.5858 34.4638H49.0313L56.2349 16.0632C56.5138 15.4445 56.932 14.9863 57.2806 14.7342C57.6989 14.4821 58.1172 14.3676 58.6749 14.3676C59.2326 14.3676 59.7205 14.4821 60.0691 14.6884C60.4177 14.8717 60.6965 15.3758 60.9754 16.0632L68.1093 34.4638H68.1325ZM61.3472 27.681L58.6981 19.7067L55.9096 27.681H61.3704H61.3472ZM86.7226 34.4638H81.6801L77.3346 26.9936H74.1976V34.4638H69.8521V18.6984C69.8521 17.1861 70.2704 16.132 71.0372 15.4445C71.8041 14.7571 73.1286 14.4363 74.9644 14.4363H78.6824C80.9132 14.4363 82.6793 15.055 84.0038 16.2466C85.3283 17.4381 85.9558 19.0192 85.9558 20.8295C85.9558 22.2044 85.5375 23.3501 84.7706 24.3355C84.0038 25.3437 83.0278 26.0312 81.8427 26.3978L86.7458 34.4409L86.7226 34.4638ZM80.5879 22.9148C81.2153 22.3419 81.4941 21.5857 81.4941 20.7837C81.4941 19.9129 81.2153 19.2255 80.6576 18.7214C80.0999 18.2172 79.3331 17.8964 78.3571 17.8964H76.196C74.8714 17.8964 74.244 18.4693 74.244 19.6609V23.7397H78.3803C79.2866 23.7397 80.0534 23.4876 80.6111 22.9148H80.5879ZM107.218 34.4638H102.664L101.409 31.0037H93.9262L92.6714 34.4638H88.1169L95.2508 16.0632C95.5296 15.4445 95.9479 14.9863 96.2965 14.7342C96.7148 14.4821 97.133 14.3676 97.6907 14.3676C98.2484 14.3676 98.7364 14.4821 99.085 14.6884C99.4335 14.9404 99.7124 15.3758 99.9912 16.0632L107.195 34.4638H107.218ZM100.363 27.681L97.714 19.7067L94.9255 27.681H100.386H100.363ZM123.601 0H123.02V50H123.601V0Z" fill="#171717"/>
</g>
<defs>
<clipPath id="clip0_57_1335">
<rect width="240.625" height="50" fill="white"/>
</clipPath>
</defs>
</svg>
