<svg width="200" height="72" viewBox="0 0 200 72" fill="none" xmlns="http://www.w3.org/2000/svg">
<path d="M106.784 0.113287L36.3843 0.0395508H36.3368C30.8929 0.0395508 25.5811 1.08766 20.5491 3.1628C3.61042 10.1361 -4.47876 29.5603 2.51743 46.4617C7.80286 59.2339 20.2218 66.9604 33.2848 66.9604C37.5037 66.9604 41.7912 66.1545 45.9255 64.4481C50.9733 62.3729 55.4931 59.3655 59.3582 55.5207L95.1629 19.8851V66.9604H106.79V0.113287H106.784ZM51.1423 47.3149C48.3649 50.08 45.1176 52.2395 41.4849 53.7352C30.4705 58.27 17.8087 53.0242 13.2572 42.0375C8.71104 31.0509 13.9701 18.4209 24.9844 13.8861C28.6013 12.3956 32.4242 11.6425 36.3368 11.6425H36.3684L86.9311 11.7004L51.137 47.3202L51.1423 47.3149Z" fill="#171717"/>
<path d="M129.262 11.1003L126.495 2.78397H126.448L123.654 11.1003H129.262ZM122.836 13.5336L121.4 17.6892H118.411L124.911 0.108398H128L134.473 17.6892H131.485L130.049 13.5336H122.836Z" fill="#171717"/>
<path d="M153.672 9.00908V17.6889H151.053V9.74644C151.053 8.04524 150.705 6.96553 148.925 6.96553C147.146 6.96553 146.085 8.17165 146.085 10.0414V17.6889H143.466V9.74644C143.466 8.04524 143.117 6.96553 141.317 6.96553C139.585 6.96553 138.476 8.17165 138.476 10.0414V17.6889H135.883V5.12213H138.476V6.74433H138.523C139.189 5.75942 140.377 4.77979 142.278 4.77979C144.057 4.77979 145.118 5.59088 145.636 6.94447H145.683C146.623 5.73835 147.859 4.77979 149.807 4.77979C152.352 4.77979 153.662 6.30191 153.662 9.00908H153.672Z" fill="#171717"/>
<path d="M159.01 5.12188V17.6886H156.418V5.12188H159.01ZM156.243 1.62995C156.243 0.745118 156.988 0.276367 157.701 0.276367C158.466 0.276367 159.184 0.745118 159.184 1.62995C159.184 2.51479 158.466 3.0046 157.701 3.0046C156.983 3.0046 156.243 2.51479 156.243 1.62995Z" fill="#171717"/>
<path d="M170.764 10.9263C170.764 8.27182 169.502 6.8919 167.406 6.8919C165.135 6.8919 163.968 8.58783 163.968 10.9263C163.968 13.2385 165.13 14.9607 167.406 14.9607C169.507 14.9607 170.764 13.5808 170.764 10.9263ZM173.383 5.12224V16.8305C173.383 20.4488 171.186 22.0447 167.601 22.0447C164.016 22.0447 161.967 20.1486 161.698 18.0366H164.317C164.565 19.1426 165.452 19.9801 167.506 19.9801C169.681 19.9801 170.79 18.9952 170.79 16.7357V15.2136H170.743C170.077 16.1458 168.916 17.0833 166.915 17.0833C163.752 17.0833 161.381 14.8923 161.381 10.9316C161.381 6.94984 163.752 4.78516 166.915 4.78516C168.916 4.78516 170.077 5.71739 170.743 6.60749H170.79V5.1275H173.383V5.12224Z" fill="#171717"/>
<path d="M181.535 15.9455C184.006 15.9455 185.29 14.0021 185.29 11.4213C185.29 8.84054 184.006 6.89707 181.535 6.89707C179.064 6.89707 177.781 8.81421 177.781 11.4213C177.781 14.0021 179.064 15.9455 181.535 15.9455ZM181.535 18.0576C177.581 18.0576 175.183 15.3293 175.183 11.416C175.183 7.50802 177.581 4.77979 181.535 4.77979C185.49 4.77979 187.887 7.50802 187.887 11.416C187.887 15.3293 185.49 18.0576 181.535 18.0576Z" fill="#171717"/>
<path d="M199.995 14.1494C199.995 16.5564 197.92 18.0575 194.857 18.0575C190.781 18.0575 189.023 16.1614 188.901 13.5069H191.425C191.546 14.8605 192.143 16.0139 194.81 16.0139C196.615 16.0139 197.381 15.1291 197.381 14.339C197.381 12.7643 195.876 12.6431 194.023 12.2007C192.022 11.7319 189.302 11.3422 189.302 8.48756C189.302 6.41768 191.129 4.77441 194.292 4.77441C197.73 4.77441 199.356 6.61782 199.53 8.80883H197.011C196.837 7.82393 196.346 6.81796 194.319 6.81796C192.761 6.81796 191.921 7.40785 191.921 8.29268C191.921 9.57253 193.331 9.66733 195.158 10.0887C197.481 10.6312 200 11.1473 200 14.1442L199.995 14.1494Z" fill="#171717"/>
<path d="M121.526 24.6987L126.025 39.0825H126.046L130.545 24.6987H133.66L127.63 42.2795H124.441L118.411 24.6987H121.526Z" fill="#171717"/>
<path d="M134.732 34.7534H141.823C141.823 32.8152 140.44 31.409 138.338 31.409C136.237 31.409 134.732 32.81 134.732 34.7534ZM141.628 38.4455H144.22C143.576 40.8314 141.702 42.6537 138.465 42.6537C134.537 42.6537 132.139 39.9466 132.139 36.0122C132.139 31.9304 134.537 29.376 138.344 29.376C142.42 29.376 144.421 32.2043 144.421 36.6811H134.732C134.732 38.7984 136.089 40.5417 138.391 40.5417C140.54 40.5417 141.406 39.2145 141.628 38.4508V38.4455Z" fill="#171717"/>
<path d="M157.194 33.5999V42.2797H154.575V34.3373C154.575 32.6361 153.857 31.5564 152.077 31.5564C150.076 31.5564 148.788 32.7625 148.788 34.6322V42.2797H146.195V29.713H148.788V31.3351H148.835C149.501 30.3502 150.815 29.3706 152.986 29.3706C155.335 29.3706 157.189 30.7242 157.189 33.5999H157.194Z" fill="#171717"/>
<path d="M162.976 31.8305V38.6458C162.976 40.0732 163.667 40.2417 165.346 40.1469V42.2642C164.829 42.3853 164.259 42.459 163.567 42.459C161.492 42.459 160.357 41.5268 160.357 38.867V31.8305H158.53V29.7132H160.357V25.7578H162.976V29.7132H165.346V31.8305H162.976Z" fill="#171717"/>
<path d="M178.124 29.7129V42.2796H175.532V40.6574H175.484C174.819 41.6423 173.51 42.622 171.334 42.622C168.984 42.622 167.131 41.2684 167.131 38.3927V29.7129H169.75V37.6553C169.75 39.3513 170.468 40.4362 172.248 40.4362C174.249 40.4362 175.537 39.2301 175.537 37.3604V29.7129H178.13H178.124Z" fill="#171717"/>
<path d="M187.322 29.4921V31.9254H187.275C184.777 31.5093 182.776 33.1789 182.776 35.8597V42.2748H180.184V29.708H182.776V32.0676H182.824C183.489 30.4928 184.529 29.4131 186.187 29.4131C186.631 29.4131 186.953 29.4342 187.322 29.4868V29.4921Z" fill="#171717"/>
<path d="M190.295 34.7534H197.386C197.386 32.8152 196.003 31.409 193.901 31.409C191.8 31.409 190.295 32.81 190.295 34.7534ZM197.191 38.4455H199.783C199.139 40.8314 197.265 42.6537 194.028 42.6537C190.1 42.6537 187.702 39.9466 187.702 36.0122C187.702 31.9304 190.1 29.376 193.907 29.376C197.983 29.376 199.984 32.2043 199.984 36.6811H190.295C190.295 38.7984 191.652 40.5417 193.954 40.5417C196.103 40.5417 196.969 39.2145 197.191 38.4508V38.4455Z" fill="#171717"/>
<path d="M126.643 51.4597C122.836 51.4597 121.331 54.6356 121.331 58.1012C121.331 61.5931 122.836 64.7638 126.643 64.7638C129.927 64.7638 131.189 62.6254 131.39 60.4871H134.331C133.935 64.4478 131.215 67.2761 126.722 67.2761C121.632 67.2761 118.422 63.4155 118.422 58.1012C118.422 52.8132 121.632 48.9526 126.722 48.9526C131.194 48.9526 133.914 51.7809 134.331 55.3677H131.39C131.068 53.598 129.906 51.4597 126.643 51.4597Z" fill="#171717"/>
<path d="M143.862 62.1362V60.2402C143.444 60.5351 142.431 60.83 141.216 61.0776C139.067 61.5411 138.127 62.1573 138.127 63.4371C138.127 64.5906 138.819 65.2331 140.229 65.2331C142.378 65.2331 143.862 64.1745 143.862 62.1362ZM141.591 56.0372C139.516 56.0372 138.75 56.6745 138.624 58.2967H136.105C136.226 55.8897 137.784 53.9937 141.591 53.9937C144.384 53.9937 146.459 55.0523 146.459 58.3968V64.3746C146.459 65.2595 146.655 65.7282 147.669 65.6282V66.8606C147.077 67.0818 146.655 67.1292 146.164 67.1292C144.78 67.1292 144.136 66.6394 143.888 65.407H143.84C143.048 66.513 141.618 67.2767 139.664 67.2767C137.092 67.2767 135.514 65.802 135.514 63.6847C135.514 60.9301 137.562 60.0663 140.725 59.4554C142.679 59.0867 143.862 58.8392 143.862 57.6331C143.862 56.7219 143.318 56.0372 141.591 56.0372Z" fill="#171717"/>
<path d="M158.714 60.6352C158.714 58.1755 157.505 56.1109 155.23 56.1109C153.128 56.1109 151.819 57.8332 151.819 60.6352C151.819 63.4161 153.128 65.1594 155.23 65.1594C157.505 65.1594 158.714 63.0948 158.714 60.6352ZM161.333 60.6352C161.333 64.7697 158.936 67.2767 155.726 67.2767C153.751 67.2767 152.516 66.3445 151.845 65.407H151.797V71.1847H149.178V54.336H151.797V55.816H151.845C152.51 54.9312 153.746 53.9937 155.726 53.9937C158.936 53.9937 161.333 56.5007 161.333 60.6299V60.6352Z" fill="#171717"/>
<path d="M165.98 54.3359V66.9026H163.388V54.3359H165.98ZM163.208 50.8492C163.208 49.9644 163.952 49.4956 164.665 49.4956C165.431 49.4956 166.149 49.9644 166.149 50.8492C166.149 51.734 165.431 52.2238 164.665 52.2238C163.947 52.2238 163.208 51.734 163.208 50.8492Z" fill="#171717"/>
<path d="M172.279 56.453V63.2683C172.279 64.6956 172.971 64.8642 174.65 64.7693V66.8866C174.133 67.0078 173.562 67.0815 172.871 67.0815C170.796 67.0815 169.66 66.1493 169.66 63.4895V56.453H167.833V54.3357H169.66V50.375H172.279V54.3357H174.65V56.453H172.279Z" fill="#171717"/>
<path d="M184.239 62.1362V60.2402C183.822 60.5351 182.808 60.83 181.594 61.0776C179.445 61.5411 178.505 62.1573 178.505 63.4371C178.505 64.5906 179.196 65.2331 180.606 65.2331C182.755 65.2331 184.239 64.1745 184.239 62.1362ZM181.963 56.0372C179.888 56.0372 179.122 56.6745 178.996 58.2967H176.477C176.599 55.8897 178.156 53.9937 181.963 53.9937C184.756 53.9937 186.831 55.0523 186.831 58.3968V64.3746C186.831 65.2595 187.032 65.7282 188.041 65.6282V66.8606C187.449 67.0818 187.027 67.1292 186.536 67.1292C185.152 67.1292 184.508 66.6394 184.26 65.407H184.213C183.421 66.513 181.99 67.2767 180.036 67.2767C177.465 67.2767 175.886 65.802 175.886 63.6847C175.886 60.9301 177.934 60.0663 181.097 59.4554C183.051 59.0867 184.234 58.8392 184.234 57.6331C184.234 56.7219 183.69 56.0372 181.963 56.0372Z" fill="#171717"/>
<path d="M192.217 49.3218H189.598V66.9026H192.217V49.3218Z" fill="#171717"/>
</svg>
