<svg width="112" height="64" viewBox="0 0 112 64" fill="none" xmlns="http://www.w3.org/2000/svg">
<g opacity="0.4">
<path d="M5.61621 26.5522C3.69675 26.5522 2.6837 25.3258 2.6837 23.0154V8.90375H8.28213V6.52219H2.6837V1.59912H0V23.1753C0 26.8365 2.00833 28.9337 5.4918 28.9337C6.89585 28.9337 7.74895 28.7027 8.38877 28.4716L8.5665 28.4183V26.019L8.22882 26.1256C7.62454 26.3389 6.77144 26.5699 5.61621 26.5699V26.5522Z" fill="#171717"/>
<path d="M11.5699 15.7286C12.0498 11.3565 14.8579 8.56613 18.7679 8.56613C22.9801 8.56613 25.3439 11.0366 25.6104 15.7286H11.5699ZM18.7679 6.18457C12.8496 6.18457 8.7085 10.8233 8.7085 17.4703V17.808C8.7085 24.4906 12.8851 28.9693 19.1056 28.9693C23.922 28.9693 27.3344 26.5167 28.2231 22.4112L28.2941 22.0912H25.6104L25.5571 22.2867C24.864 25.1126 22.6424 26.5878 19.1056 26.5878C14.3425 26.5878 11.641 23.5486 11.4811 18.0213H28.4008V16.9727C28.4008 9.01045 23.4422 6.18457 18.7857 6.18457H18.7679Z" fill="#171717"/>
<path d="M30.8716 28.6498H33.5908V0H30.8716V28.6498Z" fill="#171717"/>
<path d="M46.8316 6.18457C43.3481 6.18457 40.7888 7.94408 39.527 9.95241V6.52225H36.8433V28.6494H39.527V15.302C39.527 10.9121 42.9571 8.61945 46.3339 8.61945C50.1551 8.61945 52.0035 10.6989 52.0035 14.9643V28.6494H54.6872V15.0888C54.6872 7.73081 50.4217 6.20234 46.8316 6.20234V6.18457Z" fill="#171717"/>
<path d="M59.8946 15.7286C60.3745 11.3565 63.1826 8.56613 67.0926 8.56613C71.3048 8.56613 73.6686 11.0366 73.9352 15.7286H59.8946ZM67.0926 6.18457C61.1743 6.18457 57.0332 10.8233 57.0332 17.4703V17.808C57.0332 24.4906 61.2098 28.9693 67.4303 28.9693C72.2467 28.9693 75.6591 26.5167 76.5478 22.4112L76.6189 22.0912H73.9352L73.8818 22.2867C73.1887 25.1126 70.9671 26.5878 67.4303 26.5878C62.6672 26.5878 59.9657 23.5486 59.8058 18.0213H76.7255V16.9727C76.7255 9.01045 71.7669 6.18457 67.1104 6.18457H67.0926Z" fill="#171717"/>
<path d="M86.8559 16.0663C82.4838 15.2843 81.222 14.3956 81.222 12.1562C81.222 9.91686 83.1236 8.56613 85.9495 8.56613C88.9531 8.56613 90.5882 9.77468 91.0859 12.3695L91.1214 12.5828H93.7162L93.6807 12.2806C93.1475 8.29954 90.4816 6.18457 85.9851 6.18457C81.2042 6.18457 78.6982 9.22372 78.6982 12.2273C78.6982 16.3506 81.3641 17.6303 86.2694 18.5189C90.4461 19.3009 91.6546 20.2251 91.6546 22.6422C91.6546 25.2193 89.824 26.6411 86.4827 26.6411C82.9815 26.6411 81.0087 25.0415 80.5999 21.9135L80.5644 21.6825H77.9873V21.9668C78.3072 26.3923 81.4708 29.0226 86.4827 29.0226C91.2103 29.0226 94.2494 26.4634 94.2494 22.4822C94.2494 18.2168 91.6546 16.9371 86.8382 16.0663H86.8559Z" fill="#171717"/>
<path d="M104.575 16.0663C100.203 15.2843 98.9412 14.3956 98.9412 12.1562C98.9412 9.91686 100.843 8.56613 103.669 8.56613C106.672 8.56613 108.307 9.77468 108.805 12.3695L108.841 12.5828H111.435L111.4 12.2806C110.867 8.29954 108.201 6.18457 103.704 6.18457C98.9234 6.18457 96.4175 9.22372 96.4175 12.2273C96.4175 16.3506 99.0834 17.6303 103.989 18.5189C108.165 19.3009 109.374 20.2251 109.374 22.6422C109.374 25.2193 107.543 26.6411 104.202 26.6411C100.701 26.6411 98.7279 25.0415 98.3191 21.9135L98.2836 21.6825H95.7065V21.9668C96.0265 26.3923 99.19 29.0226 104.202 29.0226C108.93 29.0226 111.969 26.4634 111.969 22.4822C111.969 18.2168 109.374 16.9371 104.557 16.0663H104.575Z" fill="#171717"/>
<path d="M78.6805 34.959L78.4316 35.2078V40.6463L78.716 40.9307H86.1984V53.105L86.6249 53.2117L93.1475 40.9307H100.186L100.488 40.6285V35.2433L100.221 34.9768H78.6805V34.959Z" fill="#171717"/>
<path d="M0 41.7841V36.6655H5.91835V41.7841H10.4504V46.0674H5.91835V56.5355C5.91835 58.2773 6.78922 59.1126 8.29991 59.1126C9.20632 59.1126 9.86391 58.9882 10.5571 58.7038V63.3603C9.7395 63.6447 8.54873 63.9468 6.9314 63.9468C2.43488 63.9468 0 61.6186 0 57.0865V46.0674" fill="#171717"/>
<path d="M11.9434 52.9273V52.5896C11.9434 45.7293 16.7598 41.2861 22.9981 41.2861C28.5432 41.2861 33.484 44.5741 33.484 52.3408V54.0115H17.9861C18.1461 57.6371 20.0833 59.6988 23.3357 59.6988C26.0905 59.6988 27.4413 58.4902 27.8145 56.6596H33.4485C32.7553 61.3516 29.0408 63.982 23.1758 63.982C16.6709 63.982 11.9434 59.8587 11.9434 52.9273ZM27.6901 50.297C27.4768 47.009 25.8417 45.4272 22.9981 45.4272C20.3321 45.4272 18.5193 47.2223 18.0572 50.297H27.6723H27.6901Z" fill="#171717"/>
<path d="M35.2788 52.9273V52.5896C35.2788 45.5694 39.8109 41.2861 45.9425 41.2861C50.9189 41.2861 55.5221 43.49 56.0552 49.7282H50.4213C50.0125 47.1867 48.484 46.0315 46.0669 46.0315C42.9744 46.0315 40.9306 48.3597 40.9306 52.5186V52.8562C40.9306 57.2284 42.8678 59.4677 46.1913 59.4677C48.5729 59.4677 50.5101 58.0459 50.7945 55.2733H56.1796C55.8597 60.4275 52.1452 63.9998 45.907 63.9998C39.6687 63.9998 35.2788 60.0542 35.2788 52.9451V52.9273Z" fill="#171717"/>
<path d="M58.2946 35.0479H64.2663V45.2317C65.3327 43.0634 67.6787 41.2861 71.251 41.2861C75.4809 41.2861 78.4846 43.8632 78.4846 49.6927V63.5377H72.5129V50.5635C72.5129 47.6132 71.3576 46.1914 68.7273 46.1914C66.0969 46.1914 64.2485 47.7732 64.2485 50.9723V63.5199H58.2769V35.0479H58.2946Z" fill="#171717"/>
</g>
</svg>
