<svg width="94" height="65" viewBox="0 0 94 65" fill="none" xmlns="http://www.w3.org/2000/svg">
<g opacity="0.4">
<path d="M15.4336 28.3435H9.62496V5.79315C9.62496 5.56945 9.54909 5.37246 9.39736 5.20552C9.24563 5.03858 9.05762 4.95511 8.83662 4.95511H6.59695C6.37596 4.95511 6.19124 5.03858 6.03621 5.20552C5.88448 5.37246 5.80862 5.56945 5.80862 5.79315V28.3435H0V6.29731C0 2.60458 1.71521 0.754883 5.14562 0.754883H10.2879C13.7184 0.754883 15.4336 2.60458 15.4336 6.29731V28.3435Z" fill="#171717"/>
<path d="M34.0996 12.975V23.2219C34.0996 26.9179 32.3844 28.7643 28.954 28.7643H24.2668C20.8397 28.7643 19.1245 26.9146 19.1245 23.2219V12.975C19.1245 9.28232 20.8397 7.43262 24.2668 7.43262H28.954C32.3844 7.43262 34.0996 9.28232 34.0996 12.975ZM28.5417 24.3971V11.7564C28.5417 11.5293 28.4658 11.3357 28.3141 11.1687C28.1623 10.9985 27.9776 10.9183 27.7566 10.9183H25.4741C25.2498 10.9183 25.0651 11.0018 24.9133 11.1687C24.7616 11.3357 24.6857 11.5293 24.6857 11.7564V24.3971C24.6857 24.6208 24.7616 24.8178 24.9133 24.9848C25.0651 25.1517 25.2498 25.2385 25.4741 25.2385H27.7566C27.9776 25.2385 28.1623 25.155 28.3141 24.9848C28.4658 24.8178 28.5417 24.6208 28.5417 24.3971Z" fill="#171717"/>
<path d="M46.5022 7.43262H47.5808V12.8916H44.8431C43.903 12.8916 43.4313 13.3824 43.4313 14.3607V28.3436H37.8701V7.85331H42.9333V9.82655C43.7348 8.23059 44.9256 7.43262 46.5022 7.43262Z" fill="#171717"/>
<path d="M56.0839 7.43215C57.4957 7.43215 58.627 7.76603 59.4847 8.44047V1.17188H65.0459V28.3431H60.3588V26.8306C59.5011 28.1194 58.0762 28.7638 56.0872 28.7638H55.2164C51.786 28.7638 50.0708 26.9141 50.0708 23.2214V12.9746C50.0708 9.28185 51.786 7.43215 55.2164 7.43215H56.0872H56.0839ZM59.488 23.8925V12.3035C59.488 12.0798 59.4121 11.8828 59.2604 11.7158C59.1086 11.5456 58.9206 11.4654 58.6996 11.4654H56.4171C56.1961 11.4654 56.0081 11.5489 55.8563 11.7158C55.7046 11.8828 55.6287 12.0798 55.6287 12.3035V23.8925C55.6287 24.1162 55.7046 24.3132 55.8563 24.4801C56.0081 24.6471 56.1928 24.7339 56.4171 24.7339H58.6996C58.9206 24.7339 59.1086 24.6504 59.2604 24.4801C59.4121 24.3132 59.488 24.1162 59.488 23.8925Z" fill="#171717"/>
<path d="M74.4827 5.28868C73.889 5.87965 73.1765 6.17013 72.3453 6.17013C71.5141 6.17013 70.795 5.86963 70.1881 5.26865C69.5812 4.66432 69.2744 3.93646 69.2744 3.08506C69.2744 2.23367 69.5779 1.50247 70.1881 0.901479C70.7983 0.300493 71.5174 0 72.3453 0C73.1732 0 73.8857 0.300493 74.4827 0.901479C75.0764 1.50247 75.3766 2.237 75.3766 3.1051C75.3766 3.97319 75.0797 4.70105 74.4827 5.28868ZM69.568 7.84955H75.1292V28.3432H69.568V7.84955Z" fill="#171717"/>
<path d="M94 15.9126H88.4421V12.3034C88.4421 12.0797 88.3662 11.8827 88.2145 11.7157C88.0627 11.5488 87.8747 11.4653 87.6537 11.4653H85.3712C85.1502 11.4653 84.9655 11.5488 84.8137 11.7157C84.662 11.8827 84.5861 12.0797 84.5861 12.3034V23.8924C84.5861 24.1161 84.662 24.3131 84.8137 24.48C84.9655 24.647 85.1502 24.7304 85.3712 24.7304H87.6537C87.8747 24.7304 88.0627 24.647 88.2145 24.48C88.3662 24.3131 88.4421 24.1161 88.4421 23.8924V20.2798H94V23.218C94 26.914 92.2848 28.7604 88.8544 28.7604H84.1672C80.7368 28.7604 79.0249 26.9107 79.0249 23.218V12.9711C79.0249 9.27841 80.7401 7.42871 84.1672 7.42871H88.8544C92.2848 7.42871 94 9.27841 94 12.9711V15.9093V15.9126Z" fill="#171717"/>
<path d="M52.2246 43.2307H46.35V40.9503C46.35 40.7132 46.2708 40.5062 46.1092 40.3259C45.9475 40.1456 45.7496 40.0555 45.5122 40.0555H43.0845C42.8503 40.0555 42.6491 40.1456 42.4874 40.3259C42.3258 40.5062 42.2434 40.7132 42.2434 40.9503V46.0954C42.2434 46.3325 42.3225 46.5428 42.4874 46.7198C42.6491 46.8967 42.847 46.9869 43.0845 46.9869H47.0591C50.7073 47.047 52.5346 49.0135 52.5346 52.8865V59.1001C52.5346 63.0332 50.7073 64.9998 47.0591 64.9998H41.8475C38.1961 64.9998 36.3721 63.0332 36.3721 59.1001V56.1018H42.2434V59.3238C42.2434 59.5608 42.3225 59.7712 42.4874 59.9481C42.6491 60.1284 42.847 60.2152 43.0845 60.2152H45.8222C46.0564 60.2152 46.2576 60.1284 46.4192 59.9481C46.5809 59.7678 46.6633 59.5608 46.6633 59.3238V53.6478C46.6633 53.4107 46.5809 53.2004 46.4192 53.0234C46.2576 52.8431 46.0597 52.753 45.8222 52.753H41.8475C38.1961 52.753 36.3721 50.7864 36.3721 46.8533V41.0872C36.3721 37.1541 38.1961 35.1875 41.8475 35.1875H46.7524C50.4038 35.1875 52.2278 37.1574 52.2278 41.0872V43.234L52.2246 43.2307Z" fill="#171717"/>
<path d="M62.7799 35.6289H56.5952V64.553H62.7799V35.6289Z" fill="#171717"/>
<path d="M73.51 64.5522H67.3286V41.0837C67.3286 37.1506 69.1527 35.1807 72.8041 35.1807H76.0729C78.2202 35.1807 79.754 35.8985 80.6644 37.3275C81.5187 35.8985 83.0492 35.1807 85.2558 35.1807H88.5246C92.176 35.1807 94.0001 37.1506 94.0001 41.0837V64.5522H87.8188V40.5461C87.8188 40.3091 87.7363 40.0987 87.5747 39.9184C87.413 39.7415 87.2151 39.648 86.9776 39.648H84.5928C84.3554 39.648 84.1574 39.7381 83.9958 39.9184C83.8342 40.0987 83.755 40.3091 83.755 40.5461V64.5522H77.5737V40.5461C77.5737 40.3091 77.4912 40.0987 77.3296 39.9184C77.1647 39.7415 76.9701 39.648 76.7326 39.648H74.3478C74.1136 39.648 73.9124 39.7381 73.7507 39.9184C73.5858 40.0987 73.5067 40.3091 73.5067 40.5461V64.5522H73.51Z" fill="#171717"/>
<path d="M15.948 43.4043H13.8106C13.6028 43.4043 13.428 43.4878 13.2829 43.6414C13.141 43.7983 13.0718 43.9786 13.0718 44.1923V47.7347H16.6902V44.1923C16.6902 43.9819 16.6176 43.7983 16.4758 43.6414C16.334 43.4844 16.1592 43.4043 15.9513 43.4043H15.948Z" fill="#171717"/>
<path d="M24.666 35.1846H4.78939C2.14401 35.1846 0 37.3615 0 40.0492V60.1355C0 62.8199 2.14401 64.9968 4.78939 64.9968H24.666C27.3114 64.9968 29.4554 62.8199 29.4554 60.1355V40.0492C29.4554 37.3615 27.3114 35.1846 24.666 35.1846ZM21.8953 51.1975H13.0686V55.2141C13.0686 55.4211 13.1378 55.6047 13.2797 55.765C13.4248 55.9219 13.5996 56.0021 13.8074 56.0021H15.9448C16.1526 56.0021 16.3275 55.9253 16.4693 55.765C16.6111 55.6081 16.6837 55.4245 16.6837 55.2141V53.0873H21.892V54.5831C21.892 58.0454 20.2856 59.7783 17.0696 59.7783H12.676C9.46003 59.7783 7.85367 58.0454 7.85367 54.5831V44.9773C7.85367 41.515 9.46003 39.7821 12.676 39.7821H17.0696C20.2823 39.7821 21.892 41.515 21.892 44.9773V51.1975H21.8953Z" fill="#171717"/>
</g>
</svg>
